<svg version="1.2" baseProfile="tiny" xmlns="http://www.w3.org/2000/svg" width="2000" height="1200" viewBox="0 0 2000 1200" overflow="inherit"><path fill="#FAF4F1" d="M1150.333 327.318l188.445 176.491L2000 872.671V35.559l-280.112 45.249z"/><path fill="#FCF9F7" d="M1078.436 358.408l260.842 145.401-188.945-176.491z"/><path fill="#FAF4F1" d="M1009.2 195.488l-172.993 27.896 242.229 135.024 71.897-31.09z"/><path fill="#F8EFEC" d="M1720.388 80.808L1009.2 195.488l141.133 131.83zM2000 35.559V0h-90.432l-189.68 81.308z"/><path fill="#FAF4F1" d="M1077.936 358.408L0 824.326V1200h2000v-78.085l-661.472-618.106z"/><path fill="#F8EFEC" d="M1338.278 503.809L2000 1121.915V872.671zM835.707 223.384L0 358.062v466.264l1077.686-465.918z"/><path fill="#F6EAE7" d="M1720.388 81.308L1909.568 0H798.848L1009.2 196.238zM433.673 0H0v358.062l835.707-134.178z"/><path fill="#F8EFEC" d="M1009.2 195.988L798.848 0H433.673l402.534 224.134z"/></svg>